<svg width="262" height="262" viewBox="0 0 262 262" fill="none" xmlns="http://www.w3.org/2000/svg">
<path fill-rule="evenodd" clip-rule="evenodd" d="M1 0C0.447715 0 -0.000177302 0.453133 0.00179504 1.00541C0.5169 145.242 111.827 262 249.062 262C253.082 262 257.08 261.9 261.054 261.702C261.584 261.675 262 261.236 262 260.705V29.7727C260.383 14.461 246.636 0.850649 232.08 0H1Z" fill="#E45858" fill-opacity="0.1"/>
<path fill-rule="evenodd" clip-rule="evenodd" d="M53 0C52.4477 0 51.9998 0.453042 52.0022 1.00532C52.5145 117.075 141.694 211 251.63 211C254.789 211 257.931 210.922 261.054 210.769C261.585 210.743 262 210.304 262 209.773V30.629C259.577 14.4637 249.077 1.70161 231.308 0H53Z" fill="#E45858" fill-opacity="0.15"/>
<path fill-rule="evenodd" clip-rule="evenodd" d="M105 0C104.448 0 104 0.452853 104.003 1.00513C104.517 87.8036 171.564 158 254.198 158C256.495 158 258.781 157.946 261.054 157.838C261.584 157.813 262 157.374 262 156.843V29.7312C259.582 12.7419 248.296 2.54839 232.98 0H105Z" fill="#E45858" fill-opacity="0.2"/>
</svg>
